<?xml version="1.0"?><svg width="581.3316" height="347.04584" xmlns="http://www.w3.org/2000/svg">
 <title>car tracks</title>

 <g>
  <title>Layer 1</title>
  <g id="layer1">
   <path fill="black" id="path1882" d="m1.288742,173.132767l0,-171.357326l289.214126,0l289.214172,0l0,171.357326l0,171.357376l-289.214172,0l-289.214126,0l0,-171.357376zm9.64048,165.359787l0,-4.283905l6.025278,0l6.025299,0l0,4.283905l0,4.283997l6.266308,0l6.266314,0l0,-4.283997l0,-4.283905l6.025291,0l6.025295,0l0,4.283905l0,4.283997l6.02528,0l6.025311,0l0,-4.283997l0,-4.283905l6.025272,0l6.025314,0l0,4.301025l0,4.300903l6.145798,-0.15979l6.14579,-0.159851l0.141624,-4.141174l0.141632,-4.141113l6.004173,0l6.004181,0l0,4.283905l0,4.283997l6.025307,0l6.025261,0l0,-4.283997l0,-4.283905l6.025307,0l6.025284,0l0,4.283905l0,4.283997l6.025291,0l6.025322,0l0,-4.283997l0,-4.283905l6.004166,0l6.004196,0l0.141586,4.141113l0.141632,4.141174l6.145798,0.159851l6.145813,0.15979l0,-4.300903l0,-4.301025l6.025299,0l6.025284,0l0,4.283905l0,4.283997l6.025299,0l6.025299,0l0,-4.283997l0,-4.283905l6.025299,0l6.025299,0l0,4.283905l0,4.283997l6.266281,0l6.266327,0l0,-4.283997l0,-4.283905l6.025299,0l6.025314,0l0,4.283905l0,4.283997l6.025269,0l6.025284,0l0,-4.283997l0,-4.283905l6.02533,0l6.025269,0l0,4.301025l0,4.300903l6.145782,-0.15979l6.145798,-0.159851l0,-3.998383l0,-3.998322l-6.127884,-0.159698l-6.12793,-0.159729l-0.138382,-5.266571l-0.138412,-5.266602l-5.784241,0l-5.784332,0l-0.13858,5.283508l-0.13855,5.283508l-5.989151,0l-5.98912,0l-0.138596,-5.283508l-0.138626,-5.283508l-5.90477,-0.1604l-5.90477,-0.16037l0,5.443909l0,5.443878l-6.24823,0l-6.248215,0l-0.138611,-5.283508l-0.13858,-5.283508l-5.784271,0l-5.784302,0l-0.13858,5.283508l-0.138596,5.283508l-5.98912,0l-5.989136,0l-0.13855,-5.283508l-0.138641,-5.283508l-5.784256,0l-5.784286,0l-0.138611,5.283508l-0.13858,5.283508l-6.007217,0l-6.007187,0l0,-5.129883c0,-6.121216 0.310944,-5.880646 -7.258179,-5.614288l-5.033401,0.177155l-0.138626,5.283508l-0.138596,5.283508l-5.989128,0l-5.989105,0l-0.138573,-5.283508l-0.138611,-5.283508l-5.784286,0l-5.784294,0l-0.138588,5.283508l-0.13858,5.283508l-5.989105,0l-5.989136,0l-0.13858,-5.283508l-0.138603,-5.283508l-5.061272,-0.166595c-7.56813,-0.249023 -7.230331,-0.510773 -7.230331,5.603729l0,5.129883l-6.00721,0l-6.007195,0l-0.138603,-5.283508l-0.138588,-5.283508l-5.784302,0l-5.784275,0l-0.138588,5.283508l-0.138592,5.283508l-6.007214,0l-6.007195,0l0,-5.074097c0,-5.984283 0.461342,-5.60556 -6.748341,-5.539368l-5.06123,0.046448l-0.138611,5.283508l-0.13858,5.283508l-6.007219,0c-3.303961,0 -6.025249,-0.192749 -6.047298,-0.428375c-0.022043,-0.235657 -0.061575,-2.548981 -0.087841,-5.140778c-0.026258,-2.591736 -0.170906,-4.727081 -0.321424,-4.745026c-5.348358,-0.640808 -5.334921,-0.634338 -5.334921,-2.571381c0,-1.345367 -0.11816,-1.394257 -3.374169,-1.394257l-3.37415,0l0,-6.854279l0,-6.854248l3.37415,0l3.374169,0l0,-7.139923l0,-7.139832l-3.374169,0l-3.37415,0l0,-6.854309l0,-6.854309l3.37415,0l3.374169,0l0,-7.139893l0,-7.139862l-3.374169,0l-3.37415,0l0,-6.854309l0,-6.854324l3.37415,0l3.374169,0l0,-7.139847l0,-7.139938l-3.374169,0l-3.37415,0l0,-6.854233l0,-6.85434l3.37415,0l3.374169,0l0,-7.139816l0,-7.139954l-3.374169,0l-3.37415,0l0,-6.85434l0,-6.854218l3.37415,0l3.374169,0l0,-7.139893l0,-7.139893l-3.374169,0l-3.37415,0l0,-6.854309l0,-6.854279l3.37415,0l3.374169,0l0,-7.139893l0,-7.139908l-3.374169,0l-3.37415,0l0,-6.854248l0,-6.85434l3.37415,0l3.374169,0l0,-7.139847l0,-7.1399l-3.374169,0l-3.37415,0l0,-6.854317l0,-6.854279l3.37415,0l3.374169,0l0,-7.139893l0,-7.139877l-3.374169,0l-3.37415,0l0,-6.854279l0,-6.854332l3.37415,0l3.374169,0l0,-7.139885l0,-7.139854l-3.374169,0l-3.37415,0l0,-6.854317l0,-6.854275l3.37415,0l3.374169,0l0,-7.139896l0,-7.139889l-3.374169,0l-3.37415,0l0,-6.854282l0,-6.854319l3.37415,0l3.374169,0l0,-2.170511c0,-2.859474 0.67741,-3.541367 3.518085,-3.541367l2.361225,0l-0.168024,-4.141148l-0.168016,-4.141146l6.025295,0l6.02529,0l0.141632,4.141146l0.141609,4.141148l6.004192,0l6.004177,0l0,-4.283951l0,-4.283953l6.02528,0l6.025311,0l0,4.283953l0,4.283951l6.004169,0l6.004173,0l0.14164,-4.141148l0.141609,-4.141146l5.904793,-0.160381l5.904785,-0.160386l0,4.30153l0,4.301531l6.266327,0l6.266289,0l0,-4.301531l0,-4.30153l5.90477,0.160386l5.904793,0.160381l0.141624,4.141146l0.141632,4.141148l5.983055,0l5.983047,0l0.14164,-4.141148l0.141617,-4.141146l5.904808,-0.160381l5.904785,-0.160386l0,4.30153l0,4.301531l6.266327,0l6.266281,0l0,-4.301531l0,-4.30153l5.90477,0.160386l5.904785,0.160381l0.141647,4.141146l0.141647,4.141148l6.004166,0l6.00415,0l0,-4.283951l0,-4.283953l6.025299,0l6.025299,0l0,4.283953l0,4.283951l6.145798,0.000978l6.145782,0.000977l0,-4.14212l0,-4.142128l6.145798,-0.159872l6.145828,-0.159876l0,4.301022l0,4.30102l6.025299,0l6.025314,0l0,-4.283951l0,-4.283953l6.025269,0l6.025284,0l0,4.283953l0,4.283951l6.02533,0l6.025269,0l0,-4.283951l0,-4.283953l6.025299,0l6.025314,0l0,4.283953l0,4.283951l6.266266,0l6.266327,0l0,-4.301531l0,-4.30153l5.904816,0.160386l5.904755,0.160381l0.141602,4.141146l0.141632,4.141148l6.004181,0l6.004181,0l0,-4.283951l0,-4.283953l6.02533,0l6.025299,0l0,4.283953l0,4.283951l6.266296,0l6.266296,0l0,-4.301531l0,-4.30153l5.904816,0.160386l5.904785,0.160381l0.141632,4.141146l0.141602,4.141148l6.00415,0l6.004211,0l0,-4.283951l0,-4.283953l6.025269,0l6.025299,0l0,4.283953l0,4.283951l6.004211,0l6.00415,0l0.141571,-4.141148l0.141663,-4.141146l6.025299,0l6.025238,0l0,4.142128l0,4.14212l6.145874,-0.000977l6.145782,-0.000978l0,-4.283951l0,-4.283953l6.025299,0l6.025238,0l0,4.283953l0,4.283951l6.004211,0l6.004211,0l0.141602,-4.141148l0.141632,-4.141146l5.904755,-0.160381l5.904816,-0.160386l0,4.30153l0,4.301531l6.266296,0l6.266296,0l0,-4.283951l0,-4.283953l6.025299,0l6.025299,0l0,4.283953l0,4.283951l6.00415,0l6.004211,0l0.141602,-4.141148l0.141663,-4.141146l5.904755,-0.160381l5.904816,-0.160386l0,4.30153l0,4.301531l6.266327,0l6.266235,0l0,-4.301531l0,-4.30153l5.904816,0.160386l5.904846,0.160381l0.141571,4.141146l0.141663,4.141148l6.00412,0l6.004181,0l0,-4.283951l0,-4.283953l6.02533,0l6.025269,0l0,4.283953l0,4.283951l5.984192,0l5.984131,0l0.1828,-3.855576c0.100464,-2.120547 0.10614,-4.048313 0.012634,-4.283912c-0.093567,-0.235595 -2.868591,-0.428416 -6.166931,-0.428416l-5.996826,0l0,-4.283905l0,-4.283952l-6.025269,0l-6.02533,0l0,4.283952l0,4.283905l-6.025299,0l-6.025299,0l0,-4.300973l0,-4.300978l-6.145782,0.159828l-6.145752,0.159875l-0.141663,4.141146l-0.141602,4.141101l-6.004242,0l-6.00412,0l0,-4.283905l0,-4.283952l-6.025299,0l-6.025299,0l0,4.283952l0,4.283905l-6.025299,0l-6.025299,0l0,-4.283905l0,-4.283952l-6.025299,0l-6.025299,0l0,4.301021l0,4.300973l-6.090057,-0.159827l-6.090027,-0.159876l-0.055786,-3.998339l-0.055725,-3.998343l-6.145813,-0.159875l-6.145752,-0.159828l0,4.300978l0,4.300973l-6.02533,0l-6.02533,0l0,-4.283905l0,-4.283952l-6.025238,0l-6.025299,0l0,4.283952l0,4.283905l-6.00415,0l-6.004181,0l-0.141663,-4.141101l-0.141663,-4.141146l-6.025238,0l-6.025299,0l-0.141663,4.141146l-0.141571,4.141101l-6.00415,0l-6.004211,0l0,-4.283905l0,-4.283952l-6.025299,0l-6.025269,0l0,4.283952l0,4.283905l-6.025299,0l-6.02533,0l0,-4.300973l0,-4.300978l-6.145752,0.159828l-6.145874,0.159875l-0.141602,4.141146l-0.141571,4.141101l-6.004211,0l-6.00415,0l0,-4.283905l0,-4.283952l-6.025299,0l-6.02533,0l0,4.283952l0,4.283905l-6.025238,0l-6.02533,0l0,-4.283905l0,-4.283952l-6.02533,0l-6.025269,0l0,4.283952l0,4.283905l-6.00415,0l-6.004242,0l-0.141602,-4.141101l-0.141632,-4.141146l-6.145798,-0.159875l-6.145782,-0.159828l0,4.300978l0,4.300973l-6.025269,0l-6.02533,0l0,-4.283905l0,-4.283952l-6.025284,0l-6.025269,0l0,4.283952l0,4.283905l-6.025314,0l-6.025299,0l0,-4.283905l0,-4.283952l-6.266327,0l-6.266281,0l0,4.283952l0,4.283905l-6.025299,0l-6.025299,0l0,-4.283905l0,-4.283952l-6.025299,0l-6.025299,0l0,4.283952l0,4.283905l-6.025284,0l-6.025299,0l0,-4.300973l0,-4.300978l-6.145813,0.159828l-6.145798,0.159875l-0.141632,4.141146l-0.141586,4.141101l-6.004196,0l-6.004166,0l0,-4.283905l0,-4.283952l-6.025322,0l-6.025291,0l0,4.283952l0,4.283905l-6.025284,0l-6.025307,0l0,-4.283905l0,-4.283952l-6.025261,0l-6.025307,0l0,4.283952l0,4.283905l-6.004181,0l-6.004173,0l-0.141632,-4.141101l-0.141624,-4.141146l-6.14579,-0.159875l-6.145798,-0.159828l0,4.300978l0,4.300973l-6.025314,0l-6.025272,0l0,-4.283905l0,-4.283952l-6.025311,0l-6.02528,0l0,4.283952l0,4.283905l-6.025295,0l-6.025291,0l0,-4.300973l0,-4.300978l-6.1458,0.159828l-6.145809,0.159875l-0.141626,4.141146l-0.14163,4.141101l-6.004171,0l-6.004162,0l0,-4.283905l0,-4.283952l-4.097219,0l-4.097195,0l0,4.283952l0,4.283905l4.097195,0l4.097219,0l0,7.139893l0,7.139889l-4.097219,0l-4.097195,0l0,6.854319l0,6.854282l4.097195,0l4.097219,0l0,7.139889l0,7.139896l-4.097219,0l-4.097195,0l0,6.854275l0,6.854317l4.097195,0l4.097219,0l0,7.139854l0,7.139885l-4.097219,0l-4.097195,0l0,6.854332l0,6.854279l4.097195,0l4.097219,0l0,7.139877l0,7.139893l-4.097219,0l-4.097195,0l0,6.854279l0,6.854317l4.097195,0l4.097219,0l0,7.1399l0,7.139847l-4.097219,0l-4.097195,0l0,6.85434l0,6.854248l4.097195,0l4.097219,0l0,7.139908l0,7.139893l-4.097219,0l-4.097195,0l0,6.854279l0,6.854309l4.097195,0l4.097219,0l0,7.139893l0,7.139893l-4.097219,0l-4.097195,0l0,6.854218l0,6.85434l4.097195,0l4.097219,0l0,7.139954l0,7.139816l-4.097219,0l-4.097195,0l0,6.85434l0,6.854233l4.097195,0l4.097219,0l0,7.139938l0,7.139847l-4.097219,0l-4.097195,0l0,6.854324l0,6.854309l4.097195,0l4.097219,0l0,7.139862l0,7.139893l-4.097219,0l-4.097195,0l0,6.854309l0,6.854309l4.097195,0l4.097219,0l0,7.139832l0,7.139923l-4.097219,0l-4.097195,0l0,6.854248l0,6.854279l4.097195,0l4.097219,0l0,7.139954l0,7.139862l-4.097219,0l-4.097195,0l0,4.283905l0,4.283997l4.097195,0l4.097219,0l0,-4.283997zm267.523079,0l0,-4.283905l6.02533,0l6.025238,0l0,4.283905l0,4.283997l6.02533,0l6.025299,0l0,-4.283997l0,-4.283905l6.284393,0l6.284363,0l-0.13858,-5.283508l-0.138641,-5.283508l-5.061218,-0.103149c-7.605225,-0.155151 -7.230316,-0.444977 -7.230316,5.59137l0,5.078796l-6.007233,0l-6.007233,0l-0.13858,-5.283508l-0.138611,-5.283508l-5.78421,0l-5.784332,0l-0.13855,5.283508l-0.138611,5.283508l-6.007233,0l-6.007202,0l0,-5.074097c0,-6.033844 0.401978,-5.718414 -7.118195,-5.584869l-5.173431,0.091949l-0.13858,5.283508l-0.138596,5.283508l6.284409,0l6.284393,0l0,4.283905l0,4.283997l6.025269,0l6.02533,0l0,-4.283997zm48.684357,0l0,-4.283905l6.02533,0l6.025299,0l0,4.283905l0,4.283997l6.025269,0l6.025299,0l0,-4.283997l0,-4.283905l6.004211,0l6.00415,0l0.141571,4.141113l0.141663,4.141174l6.025299,0l6.025238,0l0.141663,-4.141174l0.141663,-4.141113l6.004181,0l6.00415,0l0,4.283905l0,4.283997l6.025299,0l6.025238,0l0,-4.283997l0,-4.283905l6.02533,0l6.02533,0l0,4.301025l0,4.300903l6.145752,-0.15979l6.145813,-0.159851l0.055725,-3.998383l0.055786,-3.998322l6.090027,-0.159851l6.090057,-0.159882l0,4.300995l0,4.301056l6.025299,0l6.025299,0l0,-4.283997l0,-4.283905l6.025299,0l6.025299,0l0,4.283905l0,4.283997l6.025299,0l6.025299,0l0,-4.283997l0,-4.283905l6.00412,0l6.004242,0l0.141602,4.141113l0.141663,4.141174l6.145752,0.159851l6.145782,0.15979l0,-4.300903l0,-4.301025l6.025299,0l6.025299,0l0,4.283905l0,4.283997l6.02533,0l6.025269,0l0,-4.283997l0,-4.283905l6.025269,0l6.02533,0l0,4.283905l0,4.283997l6.266296,0l6.266296,0l0,-4.283997l0,-4.283905l6.02533,0l6.025269,0l0,4.283905l0,4.283997l6.02533,0l6.02533,0l0,-4.283997l0,-4.283905l4.097107,0l4.097229,0l0,-7.139862l0,-7.139954l-4.097229,0l-4.097107,0l0,-6.854279l0,-6.854248l4.097107,0l4.097229,0l0,-7.139923l0,-7.139832l-4.097229,0l-4.097107,0l0,-6.854309l0,-6.854309l4.097107,0l4.097229,0l0,-7.139893l0,-7.139862l-4.097229,0l-4.097107,0l0,-6.854309l0,-6.854324l4.097107,0l4.097229,0l0,-7.139847l0,-7.139938l-4.097229,0l-4.097107,0l0,-6.854233l0,-6.85434l4.097107,0l4.097229,0l0,-7.139816l0,-7.139954l-4.097229,0l-4.097107,0l0,-6.85434l0,-6.854218l4.097107,0l4.097229,0l0,-7.139893l0,-7.139893l-4.097229,0l-4.097107,0l0,-6.854309l0,-6.854279l4.097107,0l4.097229,0l0,-7.139893l0,-7.139908l-4.097229,0l-4.097107,0l0,-6.854248l0,-6.85434l4.097107,0l4.097229,0l0,-7.139847l0,-7.1399l-4.097229,0l-4.097107,0l0,-6.854317l0,-6.854279l4.097107,0l4.097229,0l0,-7.139893l0,-7.139877l-4.097229,0l-4.097107,0l0,-6.854279l0,-6.854332l4.097107,0l4.097229,0l0,-7.139885l0,-7.139854l-4.097229,0l-4.097107,0l0,-6.854317l0,-6.854275l4.097107,0l4.097229,0l0,-7.139896l0,-7.139889l-4.097229,0l-4.097107,0l0,-6.854282l0,-6.854319l4.097107,0l4.097229,0l0,-7.139889l0,-7.139893l-4.097229,0l-4.097107,0l0,-4.283905l0,-4.283952l-6.02533,0l-6.02533,0l0,4.283952l0,4.283905l-6.025269,0l-6.02533,0l0,-4.283905l0,-4.283952l-6.266296,0l-6.266296,0l0,4.266884l0,4.266836l6.145813,0.159876l6.145813,0.159872l0,4.142128l0,4.14212l6.145752,-0.000977l6.145813,-0.000978l0,-4.283951l0,-4.283953l6.02533,0l6.02533,0l0,7.139893l0,7.139889l-4.09729,0l-4.097229,0l0,6.854319l0,6.854282l4.097229,0l4.09729,0l0,7.139889l0,7.139896l-4.09729,0l-4.097229,0l0,6.854275l0,6.854317l4.097229,0l4.09729,0l0,7.139854l0,7.139885l-4.09729,0l-4.097229,0l0,6.854332l0,6.854279l4.097229,0l4.09729,0l0,7.139877l0,7.139893l-4.09729,0l-4.097229,0l0,6.854279l0,6.854317l4.097229,0l4.09729,0l0,7.1399l0,7.139847l-4.09729,0l-4.097229,0l0,6.85434l0,6.854248l4.097229,0l4.09729,0l0,7.139908l0,7.139893l-4.09729,0l-4.097229,0l0,6.854279l0,6.854309l4.097229,0l4.09729,0l0,7.139893l0,7.139893l-4.09729,0l-4.097229,0l0,6.854218l0,6.85434l4.097229,0l4.09729,0l0,7.139954l0,7.139816l-4.09729,0l-4.097229,0l0,6.85434l0,6.854233l4.097229,0l4.09729,0l0,7.139938l0,7.139847l-4.09729,0l-4.097229,0l0,6.854324l0,6.854309l4.097229,0l4.09729,0l0,7.139862l0,7.139893l-4.09729,0l-4.097229,0l0,6.854309l0,6.854309l4.097229,0l4.09729,0l0,7.139832l0,7.139923l-4.09729,0l-4.097229,0l0,6.854248l0,6.854279l4.097229,0l4.09729,0l0,7.139954l0,7.139862l-6.007385,0l-6.007019,0l-0.138733,-5.283508l-0.13855,-5.283508l-5.061279,-0.12793c-7.453674,-0.188416 -6.989258,-0.546295 -6.989258,5.385559l0,5.023773l-6.187317,0.160217l-6.187073,0.160278l0.138245,-4.741364c0.07605,-2.607727 -0.019897,-5.044647 -0.213257,-5.415283c-0.243469,-0.466858 -2.087646,-0.638855 -6.001648,-0.559662l-5.650146,0.11441l-0.138672,5.283508l-0.138489,5.283508l-5.989136,0l-5.989105,0l-0.138672,-5.283508l-0.13858,-5.283508l-5.784271,0l-5.784271,0l-0.13855,5.283508l-0.138611,5.283508l-5.989105,0l-5.989136,0l-0.138641,-5.283508l-0.138519,-5.283508l-5.06131,-0.166595c-7.568115,-0.249023 -7.230316,-0.510773 -7.230316,5.603729l0,5.129883l-6.007233,0l-6.007172,0l-0.138611,-5.283508l-0.13858,-5.283508l-5.784302,0l-5.784241,0l-0.138672,5.283508l-0.13858,5.283508l-6.007141,0l-6.007263,0l0,-5.074097c0,-4.779205 -0.063019,-5.094055 -1.084534,-5.418549c-1.417877,-0.450226 -9.702026,-0.460541 -10.685638,-0.013245c-0.616089,0.280182 -0.762421,1.321289 -0.762421,5.426239l0,5.079651l-6.007263,0l-6.007172,0l-0.13858,-5.283508l-0.138611,-5.283508l-5.263855,-0.087494c-2.895081,-0.048218 -5.552216,0.043579 -5.904755,0.203857c-0.466736,0.212219 -0.640991,1.671967 -0.640991,5.371002l0,5.079651l-6.007172,0l-6.007202,0l-0.138641,-5.283508l-0.13855,-5.283508l-5.302246,-0.095886c-2.91626,-0.052765 -5.627655,0.008026 -6.025299,0.13504c-0.572906,0.182861 -0.723083,1.270508 -0.723083,5.236542l0,5.005707l-6.025238,0l-6.025299,0l-0.241058,-5.140686l-0.240967,-5.140717l-5.784332,0l-5.784241,0l-0.13855,5.283508l-0.138672,5.283508l-6.007172,0l-6.007172,0l0,-5.079651c0,-3.699036 -0.174286,-5.158783 -0.64093,-5.371002c-0.35257,-0.160278 -3.009644,-0.252075 -5.904816,-0.203857l-5.263885,0.087494l-0.138367,5.266602l-0.138428,5.266571l-6.127899,0.159729l-6.12793,0.159698l-0.146515,3.363159c-0.080566,1.849792 -0.033173,3.713287 0.105408,4.141144c0.194031,0.599213 1.639832,0.778015 6.292328,0.778015l6.040405,0l0,-4.283997zm232.09436,-166.216599l0,-148.509623l-269.451202,0l-269.451143,0l-0.121426,148.652948l-0.12142,148.652954l269.57262,-0.14328l269.572571,-0.14325l0,-148.50975z"/>
  </g>
 </g>
</svg>